<svg xmlns="http://www.w3.org/2000/svg" width="184.3" height="63.289" viewBox="0 0 184.3 63.289">
  <g id="Group_2" data-name="Group 2" transform="translate(914.022 415.757)">
    <path id="Path_75" data-name="Path 75" d="M0,0H51.339V1.424H0Z" transform="translate(-781.727 -408.86)" fill="#15181a"/>
    <path id="Path_76" data-name="Path 76" d="M0,0H51.339V1.424H0Z" transform="translate(-781.727 -408.86)" fill="none" stroke="#15181a" stroke-width="0.3"/>
    <path id="Path_77" data-name="Path 77" d="M0,0H51.3V1.424H0Z" transform="translate(-913.833 -408.86)" fill="#15181a"/>
    <path id="Path_78" data-name="Path 78" d="M0,0H51.3V1.424H0Z" transform="translate(-913.833 -408.86)" fill="none" stroke="#15181a" stroke-width="0.3"/>
    <path id="Path_31" data-name="Path 31" d="M250.894,12.3a4.332,4.332,0,0,1-1.886-.4,4.554,4.554,0,0,1-1.458-1.09,5.041,5.041,0,0,1-.949-1.551,4.859,4.859,0,0,1-.334-1.772,4.724,4.724,0,0,1,.354-1.812,5.127,5.127,0,0,1,.976-1.538,4.614,4.614,0,0,1,1.478-1.07,4.389,4.389,0,0,1,1.859-.395,4.227,4.227,0,0,1,1.879.415,4.52,4.52,0,0,1,1.451,1.11,5.2,5.2,0,0,1,.93,1.551,4.906,4.906,0,0,1,.328,1.765,4.85,4.85,0,0,1-.341,1.8,4.92,4.92,0,0,1-.963,1.538,4.532,4.532,0,0,1-1.471,1.063,4.4,4.4,0,0,1-1.852.388m-2.755-4.814a3.82,3.82,0,0,0,.187,1.19,3.252,3.252,0,0,0,.542,1.023,2.576,2.576,0,0,0,.869.709,2.549,2.549,0,0,0,1.17.261,2.47,2.47,0,0,0,1.19-.274,2.72,2.72,0,0,0,.863-.729,3.136,3.136,0,0,0,.528-1.03,3.965,3.965,0,0,0,.174-1.15,3.759,3.759,0,0,0-.187-1.184,3.2,3.2,0,0,0-.548-1.017,2.679,2.679,0,0,0-.869-.709,2.516,2.516,0,0,0-1.163-.261,2.454,2.454,0,0,0-1.17.274,2.733,2.733,0,0,0-.87.722,3.17,3.17,0,0,0-.535,1.016,3.8,3.8,0,0,0-.181,1.157m3.384-5.55-1.15-.348L251.1,0h1.658Z" transform="translate(-1102.064 -415.757)" fill="#ee5330"/>
    <path id="Path_32" data-name="Path 32" d="M312.037,13.237h-3.022v7.877h-1.832V13.237h-3.049V11.619h7.9Z" transform="translate(-1146.277 -424.634)" fill="#ee5330"/>
    <path id="Path_72" data-name="Path 72" d="M0,0H1.845V9.5H0Z" transform="translate(-829.037 -413.016)" fill="#ee5330"/>
    <path id="Path_33" data-name="Path 33" d="M390.45,16.07a4.849,4.849,0,0,1,1.237-3.236,4.495,4.495,0,0,1,3.444-1.5,4.316,4.316,0,0,1,2.267.575,3.581,3.581,0,0,1,1.411,1.5l-1.4.976a2.212,2.212,0,0,0-.628-.842,2.489,2.489,0,0,0-.836-.441,3.02,3.02,0,0,0-.863-.134,2.491,2.491,0,0,0-1.21.281,2.63,2.63,0,0,0-.856.735A3.311,3.311,0,0,0,392.5,15a3.826,3.826,0,0,0-.174,1.137,3.653,3.653,0,0,0,.2,1.2,3.3,3.3,0,0,0,.568,1.03,2.716,2.716,0,0,0,.883.709,2.463,2.463,0,0,0,1.13.261,2.859,2.859,0,0,0,.883-.147,2.548,2.548,0,0,0,.842-.468,2.348,2.348,0,0,0,.629-.843l1.5.883a2.935,2.935,0,0,1-.93,1.2,4.594,4.594,0,0,1-1.417.749,5.02,5.02,0,0,1-1.558.254,4.057,4.057,0,0,1-1.852-.421,4.748,4.748,0,0,1-1.451-1.123,5.289,5.289,0,0,1-.956-1.578,4.85,4.85,0,0,1-.341-1.772" transform="translate(-1212.225 -424.418)" fill="#ee5330"/>
    <path id="Path_34" data-name="Path 34" d="M447.8,11.618h1.872l3.49,9.5h-1.9l-.789-2.367h-3.486l-.793,2.367h-1.9Zm2.242,5.831-1.307-3.918-1.313,3.918Z" transform="translate(-1253.364 -424.634)" fill="#ee5330"/>
    <path id="Path_35" data-name="Path 35" d="M506.188,13.889a2.093,2.093,0,0,0-.341-.248,5.337,5.337,0,0,0-.6-.314,4.731,4.731,0,0,0-.769-.268,3.375,3.375,0,0,0-.843-.107,1.938,1.938,0,0,0-1.13.273.913.913,0,0,0-.381.792.8.8,0,0,0,.241.612,1.948,1.948,0,0,0,.722.386q.481.16,1.2.346a8.456,8.456,0,0,1,1.625.552,2.624,2.624,0,0,1,1.056.852,2.408,2.408,0,0,1,.368,1.4,2.707,2.707,0,0,1-.281,1.278,2.42,2.42,0,0,1-.769.871,3.311,3.311,0,0,1-1.123.492,5.743,5.743,0,0,1-1.344.153,6.968,6.968,0,0,1-1.418-.147,7.259,7.259,0,0,1-1.358-.421,6.733,6.733,0,0,1-1.21-.662l.816-1.592a2.645,2.645,0,0,0,.428.314,5.769,5.769,0,0,0,.749.388,6.267,6.267,0,0,0,.963.328,4.236,4.236,0,0,0,1.057.134,2.108,2.108,0,0,0,1.137-.245.806.806,0,0,0,.374-.721.822.822,0,0,0-.3-.672,2.644,2.644,0,0,0-.849-.426q-.549-.179-1.3-.379a7.419,7.419,0,0,1-1.5-.573,2.344,2.344,0,0,1-.9-.793,2.18,2.18,0,0,1-.3-1.192,2.747,2.747,0,0,1,.468-1.631,2.92,2.92,0,0,1,1.257-1,4.383,4.383,0,0,1,1.752-.34,5.249,5.249,0,0,1,1.264.147,6.234,6.234,0,0,1,1.117.388,6.58,6.58,0,0,1,.936.521Z" transform="translate(-1295.8 -424.418)" fill="#ee5330"/>
    <path id="Path_73" data-name="Path 73" d="M8.69-28.951l-.218-.011a1.157,1.157,0,0,1-1.09-.5A4.176,4.176,0,0,0,8.69-32.572a4.191,4.191,0,0,0-1.276-3.075,4.149,4.149,0,0,0-3.064-1.276,4.191,4.191,0,0,0-3.075,1.276A4.191,4.191,0,0,0,0-32.572,4.191,4.191,0,0,0,1.276-29.5a4.191,4.191,0,0,0,3.075,1.276,4.305,4.305,0,0,0,2.377-.709,2.207,2.207,0,0,0,1.745.72H8.69ZM6.848-30.1A3.424,3.424,0,0,1,4.34-29.06,3.466,3.466,0,0,1,1.821-30.1,3.424,3.424,0,0,1,.785-32.6a3.424,3.424,0,0,1,1.036-2.508A3.434,3.434,0,0,1,4.34-36.159a3.392,3.392,0,0,1,2.508,1.047A3.392,3.392,0,0,1,7.894-32.6,3.392,3.392,0,0,1,6.848-30.1ZM15.7-36.824h-.84v5.659a2.04,2.04,0,0,1-.589,1.483,1.879,1.879,0,0,1-1.418.6,1.857,1.857,0,0,1-1.439-.643,2.344,2.344,0,0,1-.567-1.6v-5.5h-.829v5.648a2.89,2.89,0,0,0,.807,2.072,2.693,2.693,0,0,0,1.985.84,2.72,2.72,0,0,0,2.039-.807,2.8,2.8,0,0,0,.851-2.072Zm6.39.011h-.938l-3.751,8.4h1.069l1.178-2.835h3.893l1.189,2.835h.927ZM20.009-32l1.636-3.838L23.247-32ZM31.36-29.213H28.95a1.29,1.29,0,0,1-.927-.262,1.255,1.255,0,0,1-.414-.861v-6.477h-.84v6.324a1.976,1.976,0,0,0,2.181,2.072h2.41Zm1.668-7.6h-.84v8.4h.84Zm4.318,8.4a4.02,4.02,0,0,0,2.944-1.232A4.013,4.013,0,0,0,41.533-32.6a3.921,3.921,0,0,0-1.3-3,4.681,4.681,0,0,0-3.3-1.2H34.5v8.385ZM35.307-29.2v-6.815h1.756a3.658,3.658,0,0,1,2.519.949,3.134,3.134,0,0,1,1.1,2.344,3.308,3.308,0,0,1-.96,2.475A3.22,3.22,0,0,1,37.3-29.2Zm12.474-7.611h-.938l-3.751,8.4h1.069l1.178-2.835h3.893l1.189,2.835h.927ZM45.7-32l1.636-3.838L48.937-32ZM55.3-28.417a4.02,4.02,0,0,0,2.944-1.232A4.013,4.013,0,0,0,59.492-32.6a3.921,3.921,0,0,0-1.3-3,4.681,4.681,0,0,0-3.3-1.2H52.459v8.385ZM53.266-29.2v-6.815h1.756a3.658,3.658,0,0,1,2.519.949,3.134,3.134,0,0,1,1.1,2.344,3.308,3.308,0,0,1-.96,2.475A3.22,3.22,0,0,1,55.261-29.2Zm12.1,0h-2.41a1.277,1.277,0,0,1-.916-.262,1.3,1.3,0,0,1-.414-.872v-1.941h2.8v-.8h-2.8v-1.81a1.3,1.3,0,0,1,.414-.872,1.277,1.277,0,0,1,.916-.262h2.41V-36.8h-2.41a1.976,1.976,0,0,0-2.17,2.061v4.263a1.976,1.976,0,0,0,2.17,2.061h2.41Z" transform="translate(-913.852 -324.408)" fill="#15181a"/>
    <path id="Path_36" data-name="Path 36" d="M7.079,237.485a3.423,3.423,0,0,1-2.508,1.036,3.465,3.465,0,0,1-2.519-1.036,3.554,3.554,0,0,1,0-5.016,3.433,3.433,0,0,1,2.519-1.047,3.392,3.392,0,0,1,2.508,1.047,3.527,3.527,0,0,1,0,5.016Zm1.843,1.145-.218-.011a1.158,1.158,0,0,1-1.09-.5,4.344,4.344,0,0,0,.033-6.182,4.15,4.15,0,0,0-3.064-1.276,4.19,4.19,0,0,0-3.075,1.276,4.343,4.343,0,0,0,0,6.15,4.191,4.191,0,0,0,3.075,1.276,4.305,4.305,0,0,0,2.377-.709,2.207,2.207,0,0,0,1.745.72h.218Z" transform="translate(-914.083 -591.99)" fill="none" stroke="#15181a" stroke-miterlimit="10" stroke-width="0.3"/>
    <path id="Path_37" data-name="Path 37" d="M48.379,231.075h-.84v5.659a2.039,2.039,0,0,1-.589,1.483,1.878,1.878,0,0,1-1.417.6,1.858,1.858,0,0,1-1.439-.643,2.345,2.345,0,0,1-.567-1.6v-5.5H42.7v5.648a2.891,2.891,0,0,0,.807,2.072,2.692,2.692,0,0,0,1.984.839,2.719,2.719,0,0,0,2.039-.807,2.8,2.8,0,0,0,.85-2.072Z" transform="translate(-946.53 -592.307)" fill="none" stroke="#15181a" stroke-miterlimit="10" stroke-width="0.3"/>
    <path id="Path_38" data-name="Path 38" d="M76.588,235.93l1.635-3.838,1.6,3.838Zm2.083-4.809h-.938l-3.751,8.4h1.069l1.178-2.835h3.893l1.189,2.835h.927Z" transform="translate(-970.432 -592.342)" fill="none" stroke="#15181a" stroke-miterlimit="10" stroke-width="0.3"/>
    <path id="Path_39" data-name="Path 39" d="M118.268,238.721h-2.41a1.291,1.291,0,0,1-.927-.262,1.257,1.257,0,0,1-.414-.861v-6.477h-.84v6.324a1.977,1.977,0,0,0,2.181,2.072h2.41Z" transform="translate(-1000.76 -592.342)" fill="none" stroke="#15181a" stroke-miterlimit="10" stroke-width="0.3"/>
    <path id="Path_79" data-name="Path 79" d="M0,0H.84V8.4H0Z" transform="translate(-881.664 -361.222)" fill="none" stroke="#15181a" stroke-width="0.3"/>
    <path id="Path_40" data-name="Path 40" d="M147.293,238.767v-6.815h1.756a3.658,3.658,0,0,1,2.519.949,3.133,3.133,0,0,1,1.1,2.344,3.306,3.306,0,0,1-.959,2.475,3.22,3.22,0,0,1-2.421,1.047Zm2.039.785a4.226,4.226,0,0,0,4.187-4.187,3.921,3.921,0,0,0-1.3-3,4.681,4.681,0,0,0-3.3-1.2h-2.432v8.385Z" transform="translate(-1025.828 -592.378)" fill="none" stroke="#15181a" stroke-miterlimit="10" stroke-width="0.3"/>
    <path id="Path_41" data-name="Path 41" d="M185.5,235.93l1.635-3.838,1.6,3.838Zm2.083-4.809h-.938l-3.751,8.4h1.069l1.178-2.835h3.892l1.189,2.835h.927Z" transform="translate(-1053.648 -592.342)" fill="none" stroke="#15181a" stroke-miterlimit="10" stroke-width="0.3"/>
    <path id="Path_42" data-name="Path 42" d="M223.4,238.767v-6.815h1.756a3.658,3.658,0,0,1,2.519.949,3.133,3.133,0,0,1,1.1,2.344,3.306,3.306,0,0,1-.959,2.475,3.22,3.22,0,0,1-2.421,1.047Zm2.039.785a4.226,4.226,0,0,0,4.187-4.187,3.922,3.922,0,0,0-1.3-3,4.681,4.681,0,0,0-3.3-1.2h-2.432v8.385Z" transform="translate(-1083.977 -592.378)" fill="none" stroke="#15181a" stroke-miterlimit="10" stroke-width="0.3"/>
    <path id="Path_43" data-name="Path 43" d="M262.478,238.767h-2.41a1.278,1.278,0,0,1-.916-.262,1.3,1.3,0,0,1-.414-.872v-1.941h2.8v-.8h-2.8v-1.81a1.3,1.3,0,0,1,.414-.872,1.276,1.276,0,0,1,.916-.262h2.41v-.785h-2.41a1.976,1.976,0,0,0-2.17,2.061v4.264a1.976,1.976,0,0,0,2.17,2.061h2.41Z" transform="translate(-1110.951 -592.378)" fill="none" stroke="#15181a" stroke-miterlimit="10" stroke-width="0.3"/>
    <path id="Path_74" data-name="Path 74" d="M8.69-28.951l-.218-.011a1.157,1.157,0,0,1-1.09-.5A4.176,4.176,0,0,0,8.69-32.572a4.191,4.191,0,0,0-1.276-3.075,4.149,4.149,0,0,0-3.064-1.276,4.191,4.191,0,0,0-3.075,1.276A4.191,4.191,0,0,0,0-32.572,4.191,4.191,0,0,0,1.276-29.5a4.191,4.191,0,0,0,3.075,1.276,4.305,4.305,0,0,0,2.377-.709,2.207,2.207,0,0,0,1.745.72H8.69ZM6.848-30.1A3.424,3.424,0,0,1,4.34-29.06,3.466,3.466,0,0,1,1.821-30.1,3.424,3.424,0,0,1,.785-32.6a3.424,3.424,0,0,1,1.036-2.508A3.434,3.434,0,0,1,4.34-36.159a3.392,3.392,0,0,1,2.508,1.047A3.392,3.392,0,0,1,7.894-32.6,3.392,3.392,0,0,1,6.848-30.1ZM15.7-36.824h-.84v5.659a2.04,2.04,0,0,1-.589,1.483,1.879,1.879,0,0,1-1.418.6,1.857,1.857,0,0,1-1.439-.643,2.344,2.344,0,0,1-.567-1.6v-5.5h-.829v5.648a2.89,2.89,0,0,0,.807,2.072,2.693,2.693,0,0,0,1.985.84,2.72,2.72,0,0,0,2.039-.807,2.8,2.8,0,0,0,.851-2.072ZM21.721-29.2h-2.41a1.277,1.277,0,0,1-.916-.262,1.3,1.3,0,0,1-.414-.872v-1.941h2.8v-.8h-2.8v-1.81a1.3,1.3,0,0,1,.414-.872,1.277,1.277,0,0,1,.916-.262h2.41V-36.8h-2.41a1.976,1.976,0,0,0-2.17,2.061v4.263a1.976,1.976,0,0,0,2.17,2.061h2.41Z" transform="translate(-847.544 -324.408)" fill="#15181a"/>
    <path id="Path_44" data-name="Path 44" d="M288.093,237.485a3.423,3.423,0,0,1-2.508,1.036,3.465,3.465,0,0,1-2.519-1.036,3.56,3.56,0,1,1,5.026,0Zm1.843,1.145-.218-.011a1.157,1.157,0,0,1-1.09-.5,4.33,4.33,0,1,0-3.031,1.243,4.3,4.3,0,0,0,2.377-.709,2.207,2.207,0,0,0,1.745.72h.218Z" transform="translate(-1128.789 -591.99)" fill="none" stroke="#15181a" stroke-miterlimit="10" stroke-width="0.3"/>
    <path id="Path_45" data-name="Path 45" d="M329.393,231.075h-.84v5.659a2.04,2.04,0,0,1-.589,1.483,1.879,1.879,0,0,1-1.418.6,1.857,1.857,0,0,1-1.439-.643,2.344,2.344,0,0,1-.567-1.6v-5.5h-.829v5.648a2.891,2.891,0,0,0,.807,2.072,2.87,2.87,0,0,0,4.024.033,2.8,2.8,0,0,0,.85-2.072Z" transform="translate(-1161.235 -592.307)" fill="none" stroke="#15181a" stroke-miterlimit="10" stroke-width="0.3"/>
    <path id="Path_46" data-name="Path 46" d="M358.467,238.767h-2.41a1.277,1.277,0,0,1-.916-.262,1.3,1.3,0,0,1-.414-.872v-1.941h2.8v-.8h-2.8v-1.81a1.3,1.3,0,0,1,.414-.872,1.276,1.276,0,0,1,.916-.262h2.41v-.785h-2.41a1.976,1.976,0,0,0-2.17,2.061v4.264a1.976,1.976,0,0,0,2.17,2.061h2.41Z" transform="translate(-1184.291 -592.378)" fill="none" stroke="#15181a" stroke-miterlimit="10" stroke-width="0.3"/>
    <path id="Path_69" data-name="Path 69" d="M0-30.82a2.459,2.459,0,0,0,.741,1.8,2.444,2.444,0,0,0,1.777.72,2.444,2.444,0,0,0,1.777-.72,2.339,2.339,0,0,0,.731-1.756,2.393,2.393,0,0,0-1.963-2.355L2.05-33.448a1.254,1.254,0,0,1-.97-1.276,1.287,1.287,0,0,1,.436-1.025,1.416,1.416,0,0,1,1.079-.4,1.387,1.387,0,0,1,.97.458,1.355,1.355,0,0,1,.393,1.014h.883a2.215,2.215,0,0,0-.654-1.6A2.2,2.2,0,0,0,2.6-36.97a2.278,2.278,0,0,0-1.646.643,1.986,1.986,0,0,0-.687,1.57,2.054,2.054,0,0,0,1.5,2.05l.894.273c1.014.316,1.527.861,1.548,1.636a1.557,1.557,0,0,1-.491,1.2,1.627,1.627,0,0,1-1.21.48,1.579,1.579,0,0,1-1.156-.512A1.628,1.628,0,0,1,.883-30.82Zm11.929,1.581H9.519A1.277,1.277,0,0,1,8.6-29.5a1.3,1.3,0,0,1-.414-.872v-1.941h2.8v-.8h-2.8v-1.81a1.3,1.3,0,0,1,.414-.872,1.277,1.277,0,0,1,.916-.262h2.41v-.785H9.519a1.976,1.976,0,0,0-2.17,2.061v4.263a1.976,1.976,0,0,0,2.17,2.061h2.41Z" transform="translate(-821.306 -324.371)" fill="#15181a"/>
    <path id="Path_47" data-name="Path 47" d="M392.44,236.764a2.529,2.529,0,0,0,4.3,1.8,2.338,2.338,0,0,0,.731-1.755,2.393,2.393,0,0,0-1.963-2.355l-1.014-.316a1.254,1.254,0,0,1-.97-1.276,1.286,1.286,0,0,1,.436-1.025,1.418,1.418,0,0,1,1.079-.4,1.386,1.386,0,0,1,.97.458,1.353,1.353,0,0,1,.393,1.014h.883a2.29,2.29,0,0,0-2.246-2.29,2.277,2.277,0,0,0-1.646.643,1.986,1.986,0,0,0-.687,1.57,2.054,2.054,0,0,0,1.5,2.05l.894.273c1.014.316,1.527.862,1.548,1.636a1.557,1.557,0,0,1-.491,1.2,1.626,1.626,0,0,1-1.21.48,1.578,1.578,0,0,1-1.156-.513,1.628,1.628,0,0,1-.469-1.188Z" transform="translate(-1213.746 -591.955)" fill="none" stroke="#15181a" stroke-miterlimit="10" stroke-width="0.3"/>
    <path id="Path_48" data-name="Path 48" d="M428.21,238.769H425.8a1.278,1.278,0,0,1-.916-.262,1.3,1.3,0,0,1-.414-.872v-1.941h2.8v-.8h-2.8v-1.81a1.3,1.3,0,0,1,.414-.872,1.277,1.277,0,0,1,.916-.262h2.41v-.785H425.8a1.976,1.976,0,0,0-2.17,2.061v4.264a1.976,1.976,0,0,0,2.17,2.061h2.41Z" transform="translate(-1237.577 -592.379)" fill="none" stroke="#15181a" stroke-miterlimit="10" stroke-width="0.3"/>
    <path id="Path_70" data-name="Path 70" d="M7.72-36.506H6.837L3.86-29.135.894-36.506H0L3.446-28.1h.829Z" transform="translate(-804.766 -324.978)" fill="#15181a"/>
    <path id="Path_49" data-name="Path 49" d="M470.257,230.009h-.883L466.4,237.38l-2.966-7.371h-.894l3.446,8.407h.828Z" transform="translate(-1267.303 -591.493)" fill="none" stroke="#15181a" stroke-miterlimit="10" stroke-width="0.3"/>
    <path id="Path_67" data-name="Path 67" d="M3.949-40.128h5.7v.958H4.982V-36.8H9.3v.905H4.982v2.651H9.731v.932H3.949Zm3.477-2.156,1.086,1.539H7.638L6.92-41.768,6.2-40.746H5.333l1.081-1.539Z" transform="translate(-798.94 -320.563)" fill="#15181a"/>
    <path id="Path_50" data-name="Path 50" d="M505.127,228.438,504,229.681h.785l.687-.752h.022l.7.752H507l-1.145-1.243Zm2.2,4.754h-2.857v-2.323h3.02v-.8h-3.969v7.349h4.133v-.8h-3.184v-2.65h2.857Z" transform="translate(-1298.618 -590.293)" fill="none" stroke="#15181a" stroke-miterlimit="10" stroke-width="0.3"/>
    <path id="Path_66" data-name="Path 66" d="M4.591-29.248H2.181a1.29,1.29,0,0,1-.927-.262,1.255,1.255,0,0,1-.414-.861v-6.477H0v6.324a1.976,1.976,0,0,0,2.181,2.072h2.41Zm8.352-.338a4.308,4.308,0,0,0,1.3-3.129,3.938,3.938,0,0,0-1.319-3.009,4.409,4.409,0,0,0-3.129-1.243,4.218,4.218,0,0,0-3.1,1.3,4.264,4.264,0,0,0-1.276,3.108,4.039,4.039,0,0,0,1.308,3.02,4.367,4.367,0,0,0,3.119,1.254A4.218,4.218,0,0,0,12.943-29.586Zm-.567-.556a3.455,3.455,0,0,1-2.552,1.036,3.514,3.514,0,0,1-2.508-1.047A3.355,3.355,0,0,1,6.27-32.629a3.362,3.362,0,0,1,1.047-2.486,3.435,3.435,0,0,1,2.5-1.036,3.533,3.533,0,0,1,2.53,1.014,3.362,3.362,0,0,1,1.09,2.475A3.362,3.362,0,0,1,12.376-30.143Zm9.846-6.706h-.861V-29.8l-4.634-7.044H15.593v8.4h.872v-7.306l4.82,7.306h.938ZM26.9-32.323v.752l4.7.011a3.637,3.637,0,0,1-1.4,1.8,3.108,3.108,0,0,1-2.083.654,3.976,3.976,0,0,1-2.6-1.1,3.233,3.233,0,0,1-1.036-2.486,3.455,3.455,0,0,1,1.123-2.475,3.511,3.511,0,0,1,2.464-1.014,3.482,3.482,0,0,1,3.075,1.592h.938a4.456,4.456,0,0,0-1.679-1.854,4.618,4.618,0,0,0-2.29-.523,4.369,4.369,0,0,0-3.151,1.243,4.173,4.173,0,0,0-1.287,3.075,4.035,4.035,0,0,0,1.33,3.064A4.5,4.5,0,0,0,28.176-28.3a4.416,4.416,0,0,0,2.737-.927,4.2,4.2,0,0,0,1.7-3.086Zm11.177,3.086h-2.41a1.277,1.277,0,0,1-.916-.262,1.3,1.3,0,0,1-.414-.872v-1.941h2.8v-.8h-2.8v-1.81a1.3,1.3,0,0,1,.414-.872,1.277,1.277,0,0,1,.916-.262h2.41v-.785h-2.41a1.976,1.976,0,0,0-2.17,2.061v4.263a1.976,1.976,0,0,0,2.17,2.061h2.41Z" transform="translate(-767.96 -324.373)" fill="#15181a"/>
    <path id="Path_51" data-name="Path 51" d="M623.112,238.721H620.7a1.291,1.291,0,0,1-.927-.262,1.256,1.256,0,0,1-.414-.861v-6.477h-.84v6.324a1.976,1.976,0,0,0,2.181,2.072h2.41Z" transform="translate(-1386.481 -592.342)" fill="none" stroke="#15181a" stroke-miterlimit="10" stroke-width="0.3"/>
    <path id="Path_52" data-name="Path 52" d="M648.443,237.438a3.455,3.455,0,0,1-2.552,1.036,3.515,3.515,0,0,1-2.508-1.047,3.463,3.463,0,0,1,0-4.961,3.435,3.435,0,0,1,2.5-1.036,3.533,3.533,0,0,1,2.53,1.014,3.44,3.44,0,0,1,.033,4.994Zm.567.556a4.309,4.309,0,0,0,1.3-3.13,3.938,3.938,0,0,0-1.32-3.009,4.41,4.41,0,0,0-3.129-1.243,4.219,4.219,0,0,0-3.1,1.3,4.265,4.265,0,0,0-1.276,3.108,4.04,4.04,0,0,0,1.308,3.021,4.367,4.367,0,0,0,3.119,1.254A4.218,4.218,0,0,0,649.01,237.994Z" transform="translate(-1404.027 -591.954)" fill="none" stroke="#15181a" stroke-miterlimit="10" stroke-width="0.3"/>
    <path id="Path_53" data-name="Path 53" d="M691.23,231.121h-.861v7.044l-4.634-7.044H684.6v8.4h.873v-7.306l4.819,7.306h.938Z" transform="translate(-1436.968 -592.342)" fill="none" stroke="#15181a" stroke-miterlimit="10" stroke-width="0.3"/>
    <path id="Path_54" data-name="Path 54" d="M722.15,235.257v.752l4.7.011a3.638,3.638,0,0,1-1.4,1.8,3.109,3.109,0,0,1-2.082.654,3.976,3.976,0,0,1-2.6-1.1,3.232,3.232,0,0,1-1.036-2.486,3.454,3.454,0,0,1,1.123-2.475,3.649,3.649,0,0,1,5.539.578h.938a4.452,4.452,0,0,0-1.679-1.854,4.616,4.616,0,0,0-2.29-.524,4.37,4.37,0,0,0-3.151,1.243,4.173,4.173,0,0,0-1.287,3.075,4.037,4.037,0,0,0,1.33,3.064,4.5,4.5,0,0,0,3.162,1.286,4.415,4.415,0,0,0,2.737-.927,4.2,4.2,0,0,0,1.7-3.086Z" transform="translate(-1463.199 -591.954)" fill="none" stroke="#15181a" stroke-miterlimit="10" stroke-width="0.3"/>
    <path id="Path_55" data-name="Path 55" d="M765.1,238.767h-2.41a1.277,1.277,0,0,1-.916-.262,1.3,1.3,0,0,1-.414-.872v-1.941h2.8v-.8h-2.8v-1.81a1.3,1.3,0,0,1,.414-.872,1.276,1.276,0,0,1,.916-.262h2.41v-.785h-2.41a1.976,1.976,0,0,0-2.17,2.061v4.264a1.976,1.976,0,0,0,2.17,2.061h2.41Z" transform="translate(-1494.977 -592.378)" fill="none" stroke="#15181a" stroke-miterlimit="10" stroke-width="0.3"/>
    <path id="Path_68" data-name="Path 68" d="M2.846-28.029A4.02,4.02,0,0,0,5.79-29.261a4.013,4.013,0,0,0,1.243-2.955,3.921,3.921,0,0,0-1.3-3,4.681,4.681,0,0,0-3.3-1.2H0v8.385ZM.807-28.814v-6.815H2.562a3.658,3.658,0,0,1,2.519.949,3.134,3.134,0,0,1,1.1,2.344,3.308,3.308,0,0,1-.96,2.475A3.22,3.22,0,0,1,2.8-28.814Zm12.1,0H10.5a1.277,1.277,0,0,1-.916-.262,1.3,1.3,0,0,1-.414-.872v-1.941h2.8v-.8H9.17v-1.81a1.3,1.3,0,0,1,.414-.872,1.277,1.277,0,0,1,.916-.262h2.41v-.785H10.5a1.976,1.976,0,0,0-2.17,2.061v4.263a1.976,1.976,0,0,0,2.17,2.061h2.41Z" transform="translate(-785.983 -324.796)" fill="#15181a"/>
    <path id="Path_56" data-name="Path 56" d="M542.945,238.769v-6.815H544.7a3.658,3.658,0,0,1,2.519.949,3.133,3.133,0,0,1,1.1,2.344,3.306,3.306,0,0,1-.96,2.475,3.219,3.219,0,0,1-2.421,1.047Zm2.039.785a4.226,4.226,0,0,0,4.187-4.187,3.922,3.922,0,0,0-1.3-3,4.68,4.68,0,0,0-3.3-1.2h-2.432v8.385Z" transform="translate(-1328.121 -592.379)" fill="none" stroke="#15181a" stroke-miterlimit="10" stroke-width="0.3"/>
    <path id="Path_57" data-name="Path 57" d="M582.023,238.769h-2.41a1.277,1.277,0,0,1-.916-.262,1.3,1.3,0,0,1-.414-.872v-1.941h2.8v-.8h-2.8v-1.81a1.3,1.3,0,0,1,.414-.872,1.276,1.276,0,0,1,.916-.262h2.41v-.785h-2.41a1.976,1.976,0,0,0-2.17,2.061v4.264a1.976,1.976,0,0,0,2.17,2.061h2.41Z" transform="translate(-1355.096 -592.379)" fill="none" stroke="#15181a" stroke-miterlimit="10" stroke-width="0.3"/>
    <path id="Path_58" data-name="Path 58" d="M572.5,113.91a3.185,3.185,0,0,0-.921-4.846l0-.005-14.97-8.5a8.744,8.744,0,0,1,15.525,5.522c0,.372-.011.685-.011.685l3.406-.472.009-.01a12.152,12.152,0,0,0-23.322-4.986l2.973,1.761,15,8.514a8.743,8.743,0,0,1-15.549-5.491c0-.11.011-.217.015-.325l-.009.045h-3.4l-.011.011a12.152,12.152,0,0,0,12.149,12.422,11.743,11.743,0,0,0,9.11-4.327" transform="translate(-1335.073 -487.526)" fill="#ee532f"/>
    <path id="Path_59" data-name="Path 59" d="M457.59,113.91a3.186,3.186,0,0,0-.921-4.846l0-.005-14.97-8.5a8.744,8.744,0,0,1,15.525,5.522c0,.372.287.314.287.314l3.109-.1.009-.009A12.152,12.152,0,0,0,437.31,101.3l2.973,1.761,15,8.514a8.743,8.743,0,0,1-15.549-5.491c0-.11.011-.217.015-.325l-.009.045h-3.4l-.011.011a12.152,12.152,0,0,0,12.149,12.422,11.743,11.743,0,0,0,9.11-4.327" transform="translate(-1247.279 -487.526)" fill="#ee532f"/>
    <path id="Path_71" data-name="Path 71" d="M24.114-87.646H20.6a9.084,9.084,0,0,1-8.121,4.366,8.9,8.9,0,0,1-6.57-2.653,8.921,8.921,0,0,1-2.775-6.529,8.623,8.623,0,0,1,2.979-6.57,8.9,8.9,0,0,1,6.448-2.612,8.932,8.932,0,0,1,8,4.611h3.509l-.449-1.02a10.9,10.9,0,0,0-4.326-4.734,12.458,12.458,0,0,0-6.856-1.918,12.551,12.551,0,0,0-8.855,3.714A11.437,11.437,0,0,0,0-92.339,11.521,11.521,0,0,0,3.71-83.81a12.454,12.454,0,0,0,8.733,3.55,11.934,11.934,0,0,0,11.345-6.692Zm25.5-4.652v-.163a11.09,11.09,0,0,0-3.265-8.406,11.649,11.649,0,0,0-8.325-3.754,11.129,11.129,0,0,0-8.692,3.469,11.96,11.96,0,0,0-3.632,8.733,11.875,11.875,0,0,0,3.387,8.447,11.5,11.5,0,0,0,8.2,3.714,11.347,11.347,0,0,0,9.3-4.162v3.632h3.02ZM31.5-98.99a8.563,8.563,0,0,1,6.325-2.612,8.093,8.093,0,0,1,6.08,2.612,9.037,9.037,0,0,1,2.612,6.284,9.163,9.163,0,0,1-2.653,6.733,8.123,8.123,0,0,1-6.529,2.653,8.538,8.538,0,0,1-6.08-2.9,9.018,9.018,0,0,1-2.408-6.448A8.759,8.759,0,0,1,31.5-98.99Zm41.91,4.938a10.276,10.276,0,0,0-2.938-7.509,9.878,9.878,0,0,0-7.345-3.02,9.9,9.9,0,0,0-7.386,3.02A10.276,10.276,0,0,0,52.8-94.053V-80.79h3.142V-94.379a6.878,6.878,0,0,1,2.122-5.06,6.943,6.943,0,0,1,5.06-2.122,6.764,6.764,0,0,1,4.979,2.122,6.918,6.918,0,0,1,2.163,5.06V-80.79H73.41Zm23.465,5.631A8.247,8.247,0,0,1,89-83.32a8.914,8.914,0,0,1-6.162-2.244,8.568,8.568,0,0,1-2.979-5.795h20.894v-1.673a11.116,11.116,0,0,0-3.305-7.835,12,12,0,0,0-8.08-3.836,11.4,11.4,0,0,0-9.019,3.509,11.771,11.771,0,0,0-3.673,8.978,11.763,11.763,0,0,0,3.754,8.529,11.557,11.557,0,0,0,8.447,3.469,11.992,11.992,0,0,0,6.9-2.244,11.8,11.8,0,0,0,4.407-5.958ZM79.858-94.216A8.882,8.882,0,0,1,83-99.562a8.856,8.856,0,0,1,5.876-2A8.875,8.875,0,0,1,94.63-99.48a9.1,9.1,0,0,1,3.061,5.264Z" transform="translate(-913.868 -289.087)" fill="#15181a"/>
    <path id="Path_60" data-name="Path 60" d="M24.265,110.145h-3.51a9.084,9.084,0,0,1-8.121,4.366,8.9,8.9,0,0,1-6.57-2.652A8.922,8.922,0,0,1,3.29,105.33a8.623,8.623,0,0,1,2.979-6.57,8.9,8.9,0,0,1,6.448-2.612,8.931,8.931,0,0,1,8,4.611h3.509l-.449-1.02a10.9,10.9,0,0,0-4.326-4.734,12.457,12.457,0,0,0-6.856-1.918A12.551,12.551,0,0,0,3.739,96.8a11.928,11.928,0,0,0,.122,17.18,12.455,12.455,0,0,0,8.733,3.55,11.934,11.934,0,0,0,11.345-6.693Z" transform="translate(-914.019 -486.878)" fill="none" stroke="#15181a" stroke-miterlimit="10" stroke-width="0.3"/>
    <path id="Path_61" data-name="Path 61" d="M114.9,99.041a8.563,8.563,0,0,1,6.325-2.612,8.093,8.093,0,0,1,6.08,2.612,9.036,9.036,0,0,1,2.612,6.285,9.163,9.163,0,0,1-2.652,6.733,8.122,8.122,0,0,1-6.529,2.652,8.539,8.539,0,0,1-6.08-2.9,9.018,9.018,0,0,1-2.408-6.448A8.76,8.76,0,0,1,114.9,99.041Zm18.119,6.693v-.163a11.09,11.09,0,0,0-3.265-8.406,11.649,11.649,0,0,0-8.325-3.754,11.129,11.129,0,0,0-8.692,3.469,12.272,12.272,0,0,0-.245,17.18,11.5,11.5,0,0,0,8.2,3.714,11.347,11.347,0,0,0,9.3-4.162v3.632h3.02Z" transform="translate(-997.266 -487.119)" fill="none" stroke="#15181a" stroke-miterlimit="10" stroke-width="0.3"/>
    <path id="Path_62" data-name="Path 62" d="M244.545,104.14a10.276,10.276,0,0,0-2.938-7.509,10.493,10.493,0,0,0-14.732,0,10.276,10.276,0,0,0-2.938,7.509V117.4h3.142V103.813a7.246,7.246,0,0,1,7.182-7.182,6.765,6.765,0,0,1,4.979,2.122,6.919,6.919,0,0,1,2.163,5.06V117.4h3.142Z" transform="translate(-1085.003 -487.28)" fill="none" stroke="#15181a" stroke-miterlimit="10" stroke-width="0.3"/>
    <path id="Path_63" data-name="Path 63" d="M328.278,103.508a9.143,9.143,0,0,1,14.772-5.264,9.1,9.1,0,0,1,3.061,5.264Zm17.017,5.795a8.247,8.247,0,0,1-7.876,5.1,8.914,8.914,0,0,1-6.162-2.244,8.567,8.567,0,0,1-2.979-5.795h20.894v-1.673a11.117,11.117,0,0,0-3.306-7.835,12.005,12.005,0,0,0-8.08-3.836,11.4,11.4,0,0,0-9.019,3.509,12.167,12.167,0,0,0,.082,17.507A11.557,11.557,0,0,0,337.3,117.5a11.992,11.992,0,0,0,6.9-2.244A11.8,11.8,0,0,0,348.6,109.3Z" transform="translate(-1162.289 -486.811)" fill="none" stroke="#15181a" stroke-miterlimit="10" stroke-width="0.3"/>
    <path id="Path_64" data-name="Path 64" d="M686.823,93.846a12.162,12.162,0,1,0,12.162,12.162,12.162,12.162,0,0,0-12.162-12.162m0,20.821a8.659,8.659,0,1,1,8.659-8.659,8.659,8.659,0,0,1-8.659,8.659" transform="translate(-1429.374 -487.459)" fill="#15181a"/>
    <path id="Path_65" data-name="Path 65" d="M686.823,93.846a12.162,12.162,0,1,0,12.162,12.162A12.162,12.162,0,0,0,686.823,93.846Zm0,20.821a8.659,8.659,0,1,1,8.659-8.659A8.659,8.659,0,0,1,686.823,114.667Z" transform="translate(-1429.374 -487.459)" fill="none" stroke="#15181a" stroke-miterlimit="10" stroke-width="0.3"/>
  </g>
</svg>
