<svg xmlns="http://www.w3.org/2000/svg" width="45.452" height="45.452" viewBox="0 0 45.452 45.452">
  <path id="Path_80" data-name="Path 80" d="M591,131.293a5.957,5.957,0,0,0-1.723-9.063l0-.01-27.995-15.889a16.353,16.353,0,0,1,29.034,10.328c0,.7-.02,1.28-.02,1.28l6.37-.883.017-.019a22.727,22.727,0,0,0-43.614-9.325l5.56,3.293,28.054,15.923a16.35,16.35,0,0,1-29.078-10.269c0-.205.02-.406.028-.609l-.016.083h-6.356l-.021.021a22.726,22.726,0,0,0,22.72,23.231A21.961,21.961,0,0,0,591,131.293" transform="translate(-551.237 -93.933)" fill="#ee532f"/>
</svg>
