<svg id="Group_336" data-name="Group 336" xmlns="http://www.w3.org/2000/svg" xmlns:xlink="http://www.w3.org/1999/xlink" width="112.757" height="145.788" viewBox="0 0 112.757 145.788">
  <defs>
    <clipPath id="clip-path">
      <rect id="Rectangle_465" data-name="Rectangle 465" width="112.757" height="145.788" fill="none" stroke="#fff" stroke-width="1"/>
    </clipPath>
    <linearGradient id="linear-gradient" x1="0.5" x2="0.5" y2="1" gradientUnits="objectBoundingBox">
      <stop offset="0" stop-color="#ee532f"/>
      <stop offset="1" stop-color="#f27457"/>
    </linearGradient>
    <clipPath id="clip-path-2">
      <rect id="Rectangle_467" data-name="Rectangle 467" width="40.105" height="39.329" fill="#fff" stroke="#fff" stroke-width="1"/>
    </clipPath>
  </defs>
  <g id="Group_335" data-name="Group 335" transform="translate(0 0)" clip-path="url(#clip-path)">
    <path id="Path_97" data-name="Path 97" d="M32.023,50.387l12.794,12a.913.913,0,0,0,1.338-.1l19.86-24.941" transform="translate(6.916 8.066)" fill="none" stroke="#fff" stroke-linecap="round" stroke-miterlimit="10" stroke-width="4.387"/>
    <path id="Path_98" data-name="Path 98" d="M25.838,84.57a78.761,78.761,0,0,1-11.55,19.855,2.259,2.259,0,0,0,1.387,3.664l14.059,2.123,4.109,13.154a2.15,2.15,0,0,0,3.709.7A109.971,109.971,0,0,0,53.4,97.582a110.021,110.021,0,0,0,15.852,26.485,2.149,2.149,0,0,0,3.707-.7l4.109-13.154,14.059-2.123a2.26,2.26,0,0,0,1.389-3.664A78.8,78.8,0,0,1,80.966,84.57" transform="translate(2.977 18.264)" stroke="#fff" stroke-linecap="round" stroke-miterlimit="10" stroke-width="3" fill="url(#linear-gradient)"/>
    <path id="Path_99" data-name="Path 99" d="M109.617,55.9c0,4.514-7.078,8.037-8.191,12.2-1.152,4.308,3.182,10.891,1,14.662-2.213,3.825-10.1,3.349-13.207,6.453s-2.628,10.994-6.453,13.207c-3.772,2.181-10.355-2.152-14.662-1-4.162,1.113-7.686,8.191-12.2,8.191s-8.038-7.078-12.2-8.191c-4.308-1.152-10.891,3.182-14.662,1-3.825-2.213-3.349-10.1-6.453-13.207S11.6,86.592,9.384,82.766c-2.183-3.772,2.152-10.355,1-14.662-1.113-4.162-8.191-7.686-8.191-12.2s7.078-8.037,8.191-12.2c1.152-4.308-3.182-10.891-1-14.662,2.213-3.825,10.1-3.349,13.207-6.454S25.218,11.6,29.044,9.383c3.772-2.183,10.355,2.151,14.662,1,4.162-1.113,7.686-8.191,12.2-8.191s8.037,7.078,12.2,8.191C72.413,11.535,79,7.2,82.767,9.383c3.825,2.213,3.349,10.1,6.454,13.207s10.992,2.628,13.205,6.453c2.183,3.772-2.152,10.355-1,14.662C102.539,47.867,109.617,51.391,109.617,55.9Z" transform="translate(0.474 0.474)" stroke="#fff" stroke-linecap="round" stroke-miterlimit="10" stroke-width="3" fill="url(#linear-gradient)"/>
    <circle id="Ellipse_22" data-name="Ellipse 22" cx="36.758" cy="36.758" r="36.758" transform="translate(19.62 19.62)" stroke="#fff" stroke-linecap="round" stroke-miterlimit="10" stroke-width="3" fill="url(#linear-gradient)"/>
    <g id="Group_338" data-name="Group 338" transform="translate(35.883 34.989)">
      <g id="Group_337" data-name="Group 337" transform="translate(0 0)" clip-path="url(#clip-path-2)">
        <path id="Rectangle_466" data-name="Rectangle 466" d="M1.505-2.194h3.5a3.7,3.7,0,0,1,3.7,3.7V18.712a3.7,3.7,0,0,1-3.7,3.7h-3.5a3.7,3.7,0,0,1-3.7-3.7V1.505A3.7,3.7,0,0,1,1.505-2.194Zm3.5,22.016a1.112,1.112,0,0,0,1.111-1.111V1.505A1.112,1.112,0,0,0,5.008.394h-3.5A1.112,1.112,0,0,0,.394,1.505V18.712a1.112,1.112,0,0,0,1.111,1.111Z" transform="translate(1.765 15.486)" fill="#fff"/>
        <path id="Path_100" data-name="Path 100" d="M84.719,57.564H81.3a1.294,1.294,0,1,1,0-2.588h3.421a1.759,1.759,0,0,0,0-3.517,1.294,1.294,0,1,1,0-2.588,4.346,4.346,0,0,1,0,8.692Z" transform="translate(-48.863 -30.016)" fill="#fff"/>
        <path id="Path_101" data-name="Path 101" d="M81.693,73.034H78.272a1.294,1.294,0,1,1,0-2.588h3.421a1.759,1.759,0,0,0,0-3.517,1.294,1.294,0,1,1,0-2.588,4.346,4.346,0,0,1,0,8.692Z" transform="translate(-47.031 -39.381)" fill="#fff"/>
        <path id="Path_102" data-name="Path 102" d="M49.368,21.872H45.985a1.294,1.294,0,1,1,0-2.588h3.383a1.758,1.758,0,1,0,0-3.517H36.6a1.976,1.976,0,0,1-1.639-.869,2,2,0,0,1-.2-1.864A22.028,22.028,0,0,0,36.241,7.74a8.256,8.256,0,0,0-.332-4.069,1.749,1.749,0,0,0-1.8-1.079A2.1,2.1,0,0,0,32.983,3a1.791,1.791,0,0,0-.66,1.01c-.162.639-.3,1.331-.454,2.063-.549,2.679-1.171,5.716-3.2,8.329a8.533,8.533,0,0,1-6.232,3.215,1.294,1.294,0,1,1-.166-2.582,5.946,5.946,0,0,0,4.352-2.217c1.656-2.138,2.19-4.744,2.706-7.265.156-.763.3-1.483.481-2.181a4.378,4.378,0,0,1,1.6-2.432A4.649,4.649,0,0,1,33.942.01a4.308,4.308,0,0,1,4.372,2.705,10.765,10.765,0,0,1,.494,5.353,23.461,23.461,0,0,1-1.323,5.111H49.368a4.346,4.346,0,1,1,0,8.692Z" transform="translate(-13.181 -0.428)" fill="#fff"/>
        <path id="Path_103" data-name="Path 103" d="M47.335,88.5H32.12l-.056,0a11.971,11.971,0,0,1-5-1.865,7.474,7.474,0,0,0-3.57-1.339,1.294,1.294,0,1,1,0-2.588,9.632,9.632,0,0,1,4.85,1.677,9.742,9.742,0,0,0,3.893,1.531h15.1a1.759,1.759,0,0,0,0-3.517,1.294,1.294,0,1,1,0-2.588,4.346,4.346,0,0,1,0,8.692Z" transform="translate(-13.867 -48.747)" fill="#fff"/>
      </g>
    </g>
  </g>
</svg>
