<svg xmlns="http://www.w3.org/2000/svg" width="22.918" height="23.836" viewBox="0 0 22.918 23.836">
  <path id="Path_86" data-name="Path 86" d="M22.336,12.876a2.519,2.519,0,0,0,.582-1.94,1.924,1.924,0,0,0-.559-1.424A2.869,2.869,0,0,0,20.5,8.82H16.027c.237-1.763.744-6.855-1.037-8.37a2.036,2.036,0,0,0-2.076-.3c-1.637.543-1.651,1.965-1.666,3.47,0,.451-.009.916-.048,1.415a4.857,4.857,0,0,1-3.783,3.8c-.392.1-.939.247-1.544.462A1.439,1.439,0,0,0,4.459,8.206a1.738,1.738,0,0,0-.39.045l-2.421.566A2.206,2.206,0,0,0,0,10.894v9.245a2.207,2.207,0,0,0,1.648,2.076l2.422.565a1.709,1.709,0,0,0,.389.046,1.446,1.446,0,0,0,1.447-1.249,18.056,18.056,0,0,0,9.014,2.259,18.626,18.626,0,0,0,3.362-.187,3.058,3.058,0,0,0,2.44-2.368l.136-1.487A.468.468,0,0,0,21,19.706a2.892,2.892,0,0,0,.825-3.385.488.488,0,0,0,.074-.071,3.16,3.16,0,0,0,.434-3.374M5,21.3a.545.545,0,0,1-.715.567l-2.422-.565a1.3,1.3,0,0,1-.927-1.168V10.894A1.294,1.294,0,0,1,1.86,9.726L4.281,9.16a.759.759,0,0,1,.178-.021A.529.529,0,0,1,5,9.728Zm15.5-2.411h-.959a.466.466,0,1,0,0,.933h.379L19.793,21.2a2.192,2.192,0,0,1-1.71,1.541,18.8,18.8,0,0,1-3.163.166,16.8,16.8,0,0,1-8.991-2.4V10.278a16.48,16.48,0,0,1,1.724-.543A5.814,5.814,0,0,0,12.13,5.1c.041-.53.046-1.034.051-1.479.015-1.568.063-2.274,1.026-2.594a1.1,1.1,0,0,1,1.178.129c1.4,1.187.937,6.215.642,8.052,0,.012,0,.025,0,.037s0,.024,0,.037,0,.007,0,.01a.434.434,0,0,0,0,.049c0,.014,0,.03.006.043a.408.408,0,0,0,.013.042.456.456,0,0,0,.016.045.384.384,0,0,0,.02.036.417.417,0,0,0,.025.042.381.381,0,0,0,.026.032.417.417,0,0,0,.031.035c.01.01.022.018.033.027a.4.4,0,0,0,.038.029c.011.007.023.013.035.019a.449.449,0,0,0,.046.023.287.287,0,0,0,.034.01.392.392,0,0,0,.056.015l.008,0,.03,0c.015,0,.028,0,.044,0h5.019a1.944,1.944,0,0,1,1.2.423,1.014,1.014,0,0,1,.283.761,2.035,2.035,0,0,1-.25,1.214H20.653a.466.466,0,0,0,0,.933h.724a2.15,2.15,0,0,1-.069,2.4H20.1a.466.466,0,0,0,0,.933h.676a1.829,1.829,0,0,1-.274,2.477" transform="translate(0 0)" fill="#f06444"/>
</svg>
