<svg xmlns="http://www.w3.org/2000/svg" width="13.661" height="13.601" viewBox="0 0 13.661 13.601">
  <g id="Icon_feather-arrow-up-right" data-name="Icon feather-arrow-up-right" transform="translate(-8.439 0.561)">
    <path id="Path_85" data-name="Path 85" d="M9.5,21.54a.5.5,0,0,1-.353-.851L20.689,9.146a.5.5,0,1,1,.705.705L9.851,21.394A.5.5,0,0,1,9.5,21.54Z" transform="translate(0 -9)" fill="#df6d4e" stroke="#df6d4e" stroke-linecap="round" stroke-width="1"/>
    <path id="Path_86" data-name="Path 86" d="M21.041,21.54a.5.5,0,0,1-.5-.5V10H9.5a.5.5,0,0,1,0-1H21.041a.5.5,0,0,1,.5.5V21.041A.5.5,0,0,1,21.041,21.54Z" transform="translate(0 -9)" fill="#df6d4e" stroke="#df6d4e" stroke-linecap="round" stroke-width="1"/>
  </g>
</svg>
