<svg xmlns="http://www.w3.org/2000/svg" width="18.553" height="13.917" viewBox="0 0 18.553 13.917">
  <path id="Path_96" data-name="Path 96" d="M18.553,2.858V1.88A1.882,1.882,0,0,0,16.673,0H1.88A1.882,1.882,0,0,0,0,1.88v.978H0v9.178a1.883,1.883,0,0,0,1.88,1.88H16.673a1.882,1.882,0,0,0,1.88-1.88V2.859Zm-.846,9.711L12.286,7.186l5.551-3.665v8.516a1.159,1.159,0,0,1-.13.533M1.88.716H16.673A1.165,1.165,0,0,1,17.837,1.88v.782L10.349,7.607a2.143,2.143,0,0,1-2.146,0L.716,2.662V1.88A1.165,1.165,0,0,1,1.88.716M.846,12.57a1.155,1.155,0,0,1-.13-.533V3.521L6.267,7.186ZM1.88,13.2a1.159,1.159,0,0,1-.526-.127L6.877,7.589l.932.616a2.847,2.847,0,0,0,2.935,0l.932-.616L17.2,13.074a1.156,1.156,0,0,1-.526.127Z" fill="#272726"/>
</svg>
