<svg xmlns="http://www.w3.org/2000/svg" width="25.692" height="22.951" viewBox="0 0 25.692 22.951">
  <path id="Path_85" data-name="Path 85" d="M25.543,10.582,14.065.446a1.893,1.893,0,0,0-2.439,0L.148,10.582a.438.438,0,1,0,.579.656L2.16,9.973v11.3a1.681,1.681,0,0,0,1.678,1.679H8.767a1.681,1.681,0,0,0,1.679-1.679v-5.4a.8.8,0,0,1,.8-.8h3.193a.8.8,0,0,1,.8.8v5.4a1.681,1.681,0,0,0,1.679,1.679h4.929a1.68,1.68,0,0,0,1.679-1.679V9.973l1.432,1.265a.438.438,0,0,0,.58-.656M22.656,21.273a.8.8,0,0,1-.8.8H16.924a.8.8,0,0,1-.8-.8v-5.4A1.68,1.68,0,0,0,14.442,14.2H11.249A1.68,1.68,0,0,0,9.57,15.875v5.4a.8.8,0,0,1-.8.8H3.838a.8.8,0,0,1-.8-.8V9.2l9.17-8.1a1.007,1.007,0,0,1,1.281,0l9.17,8.1Z" transform="translate(0 0)" fill="#f06444"/>
</svg>
