<svg xmlns="http://www.w3.org/2000/svg" width="15.986" height="15.986" viewBox="0 0 15.986 15.986">
  <path id="Icon_awesome-whatsapp" data-name="Icon awesome-whatsapp" d="M13.591,4.573A7.924,7.924,0,0,0,1.124,14.132L0,18.236l4.2-1.1a7.9,7.9,0,0,0,3.786.963h0a8,8,0,0,0,8-7.922,7.953,7.953,0,0,0-2.394-5.6Zm-5.6,12.189a6.572,6.572,0,0,1-3.354-.917L4.4,15.7l-2.491.653.664-2.43-.157-.25a6.6,6.6,0,1,1,12.236-3.5A6.658,6.658,0,0,1,7.989,16.762ZM11.6,11.831c-.2-.1-1.17-.578-1.352-.642s-.314-.1-.446.1-.51.642-.628.778-.232.15-.428.05A5.388,5.388,0,0,1,6.052,9.761c-.2-.35.2-.325.582-1.081a.367.367,0,0,0-.018-.346c-.05-.1-.446-1.074-.61-1.47s-.325-.332-.446-.339-.246-.007-.378-.007a.733.733,0,0,0-.528.246,2.224,2.224,0,0,0-.692,1.652,3.878,3.878,0,0,0,.806,2.048,8.845,8.845,0,0,0,3.383,2.99,3.873,3.873,0,0,0,2.376.5,2.027,2.027,0,0,0,1.335-.942,1.655,1.655,0,0,0,.114-.942C11.929,11.977,11.8,11.927,11.6,11.831Z" transform="translate(0 -2.25)" fill="#fff"/>
</svg>
