<svg xmlns="http://www.w3.org/2000/svg" xmlns:xlink="http://www.w3.org/1999/xlink" width="15.919" height="19.19" viewBox="0 0 15.919 19.19">
  <defs>
    <clipPath id="clip-path">
      <rect id="Rectangle_462" data-name="Rectangle 462" width="15.919" height="19.19" fill="none"/>
    </clipPath>
  </defs>
  <g id="Group_318" data-name="Group 318" clip-path="url(#clip-path)">
    <path id="Path_92" data-name="Path 92" d="M11.229,12.172c1.379-2.132,2.716-4.606,2.716-6.187a5.985,5.985,0,0,0-11.971,0c0,1.58,1.337,4.054,2.716,6.187C1.9,12.736,0,14.008,0,15.523c0,2.056,3.5,3.667,7.96,3.667s7.96-1.61,7.96-3.667c0-1.515-1.9-2.787-4.691-3.352M7.96.744A5.247,5.247,0,0,1,13.2,5.985c0,2.54-4.1,8.022-5.242,9.5-1.14-1.474-5.242-6.956-5.242-9.5A5.248,5.248,0,0,1,7.96.744m0,17.7c-4.317,0-7.216-1.511-7.216-2.923,0-1.074,1.682-2.2,4.388-2.683,1.257,1.871,2.433,3.346,2.538,3.477a.372.372,0,0,0,.58,0c.105-.131,1.282-1.607,2.538-3.477,2.706.479,4.388,1.61,4.388,2.683,0,1.412-2.9,2.923-7.216,2.923" fill="#272726"/>
    <path id="Path_93" data-name="Path 93" d="M32.655,19.027a3.007,3.007,0,1,0-3.007,3.008,3.01,3.01,0,0,0,3.007-3.008m-5.27,0a2.263,2.263,0,1,1,2.263,2.264,2.265,2.265,0,0,1-2.263-2.264" transform="translate(-21.688 -13.042)" fill="#272726"/>
  </g>
</svg>
