<svg xmlns="http://www.w3.org/2000/svg" width="13.408" height="21.25" viewBox="0 0 13.408 21.25">
  <g id="Group_354" data-name="Group 354" transform="translate(-622 -4593.237)">
    <path id="Path_94" data-name="Path 94" d="M11.262,0H2.145A2.148,2.148,0,0,0,0,2.145v16.96a2.148,2.148,0,0,0,2.145,2.145h9.117a2.148,2.148,0,0,0,2.145-2.145V2.145A2.147,2.147,0,0,0,11.262,0M2.145.817h9.117a1.33,1.33,0,0,1,1.328,1.328V3.6H.817V2.145A1.33,1.33,0,0,1,2.145.817m10.445,3.6V14.628H.817V4.417ZM11.262,20.434H2.145A1.33,1.33,0,0,1,.817,19.105v-3.66H12.591v3.66a1.33,1.33,0,0,1-1.328,1.328" transform="translate(622 4593.237)" fill="#272726"/>
    <path id="Path_95" data-name="Path 95" d="M29.44,83.709a.868.868,0,1,0,.868.868.868.868,0,0,0-.868-.868" transform="translate(599.264 4526.625)" fill="#272726"/>
  </g>
</svg>
