<svg xmlns="http://www.w3.org/2000/svg" xmlns:xlink="http://www.w3.org/1999/xlink" width="24.592" height="24.213" viewBox="0 0 24.592 24.213">
  <defs>
    <linearGradient id="linear-gradient" x1="0.5" x2="0.5" y2="1" gradientUnits="objectBoundingBox">
      <stop offset="0" stop-color="#ee532f"/>
      <stop offset="1" stop-color="#f27457"/>
    </linearGradient>
  </defs>
  <g id="Group_358" data-name="Group 358" transform="translate(-1033.704 -820.893)">
    <g id="Group_356" data-name="Group 356">
      <path id="Path_89" data-name="Path 89" d="M22.1,1.424H19.665V.475a.475.475,0,0,0-.949,0v.949H12.771V.475a.475.475,0,0,0-.949,0v.949H5.876V.475a.475.475,0,0,0-.949,0v.949H2.492A2.5,2.5,0,0,0,0,3.916v17.8a2.5,2.5,0,0,0,2.492,2.493H22.1a2.5,2.5,0,0,0,2.492-2.493V3.916A2.5,2.5,0,0,0,22.1,1.424m1.543,20.3A1.545,1.545,0,0,1,22.1,23.264H2.492A1.545,1.545,0,0,1,.949,21.721V3.916A1.545,1.545,0,0,1,2.492,2.373H4.927V3.782a.475.475,0,0,0,.949,0V2.373h5.945v1.41a.475.475,0,1,0,.949,0V2.373h5.945v1.41a.475.475,0,1,0,.949,0V2.373H22.1a1.545,1.545,0,0,1,1.543,1.543Z" transform="translate(1033.704 820.893)" fill="url(#linear-gradient)"/>
    </g>
    <g id="Group_355" data-name="Group 355">
      <path id="Path_90" data-name="Path 90" d="M27.3,46.684,28.457,45.6a16.57,16.57,0,0,0,1.612-1.627,4.474,4.474,0,0,0,.676-1.115,3.1,3.1,0,0,0,.218-1.163,2.282,2.282,0,0,0-.356-1.265,2.37,2.37,0,0,0-1-.86,3.422,3.422,0,0,0-1.486-.307,4.883,4.883,0,0,0-1.154.126,4.047,4.047,0,0,0-.952.359,6.731,6.731,0,0,0-1.1.8l1.031,1.222a5.213,5.213,0,0,1,1.025-.682,2.287,2.287,0,0,1,1.013-.24,1.157,1.157,0,0,1,.8.264,1.021,1.021,0,0,1,.3.8,1.869,1.869,0,0,1-.135.7,3.152,3.152,0,0,1-.442.734q-.307.4-1.308,1.421l-2.253,2.278v1.32h6.275v-1.6H27.3Z" transform="translate(1014.701 790.948)" fill="url(#linear-gradient)"/>
      <path id="Path_91" data-name="Path 91" d="M54.953,42.107l.915,1.142L56.9,42.42q.184-.147.657-.62l-.031.933-.019.853v5.195h1.9V39.8H57.845Z" transform="translate(991.79 790.534)" fill="url(#linear-gradient)"/>
    </g>
  </g>
</svg>
