<svg xmlns="http://www.w3.org/2000/svg" xmlns:xlink="http://www.w3.org/1999/xlink" width="23.526" height="26.135" viewBox="0 0 23.526 26.135">
  <defs>
    <linearGradient id="linear-gradient" x1="0.5" x2="0.5" y2="1" gradientUnits="objectBoundingBox">
      <stop offset="0" stop-color="#ee532f"/>
      <stop offset="1" stop-color="#f27457"/>
    </linearGradient>
  </defs>
  <g id="Group_357" data-name="Group 357" transform="translate(-752.273 -820.97)">
    <path id="Path_87" data-name="Path 87" d="M28.293,16.452a11.116,11.116,0,0,1-6.676-2.223,10.594,10.594,0,0,1-1.376.882,11.2,11.2,0,0,1-5.3,1.341h0a11.681,11.681,0,0,1-1.755-.135A15.79,15.79,0,0,0,16.592,29.56a18.415,18.415,0,0,0,5.025,4.192,18.424,18.424,0,0,0,5.007-4.171,15.788,15.788,0,0,0,3.425-13.264,11.683,11.683,0,0,1-1.756.134m-2.4,12.52a17.61,17.61,0,0,1-4.278,3.681,17.6,17.6,0,0,1-4.295-3.7A14.728,14.728,0,0,1,14,17.366q.477.037.945.037h0a12.152,12.152,0,0,0,5.75-1.455c.32-.173.63-.359.925-.554A12.057,12.057,0,0,0,28.293,17.4c.313,0,.628-.012.946-.036a14.725,14.725,0,0,1-3.344,11.607" transform="translate(742.422 810.12)" fill="url(#linear-gradient)"/>
    <path id="Path_88" data-name="Path 88" d="M23.042,3.756a1.829,1.829,0,0,0-2.2-1.418,9.7,9.7,0,0,1-2.13.244A8.89,8.89,0,0,1,13.043.518a1.83,1.83,0,0,0-2.552,0A8.886,8.886,0,0,1,4.817,2.582a9.675,9.675,0,0,1-2.129-.244,1.83,1.83,0,0,0-2.2,1.417A19.5,19.5,0,0,0,7.87,23.962a21.365,21.365,0,0,0,2.167,1.476,3.469,3.469,0,0,0,1.745.7,1.757,1.757,0,0,0,.781-.188A20.865,20.865,0,0,0,19.01,20.76a19.378,19.378,0,0,0,4.032-17M18.283,20.148a20.114,20.114,0,0,1-6.136,4.944.818.818,0,0,1-.366.093,2.951,2.951,0,0,1-1.261-.565,20.361,20.361,0,0,1-2.069-1.409A18.589,18.589,0,0,1,1.421,3.947a.881.881,0,0,1,.863-.7.87.87,0,0,1,.194.022,10.622,10.622,0,0,0,2.338.267A9.735,9.735,0,0,0,11.149,1.2a.881.881,0,0,1,1.236,0,9.733,9.733,0,0,0,6.332,2.329,10.624,10.624,0,0,0,2.338-.267.866.866,0,0,1,.194-.022.881.881,0,0,1,.863.7,18.456,18.456,0,0,1-3.829,16.2" transform="translate(752.272 820.97)" fill="url(#linear-gradient)"/>
  </g>
</svg>
