<svg xmlns="http://www.w3.org/2000/svg" width="95" height="95" viewBox="0 0 95 95">
  <path id="Icon_metro-qrcode" data-name="Icon metro-qrcode" d="M32.258,7.866H8.508v23.75h23.75ZM38.2,1.928V37.553H2.571V1.928ZM14.446,13.8H26.321V25.678H14.446ZM91.633,7.866H67.883v23.75h23.75V7.866Zm5.938-5.938V37.553H61.946V1.928H97.571ZM73.821,13.8H85.7V25.678H73.821ZM32.258,67.241H8.508v23.75h23.75ZM38.2,61.3V96.928H2.571V61.3ZM14.446,73.178H26.321V85.053H14.446ZM44.133,1.928h5.938V7.866H44.133Zm5.938,5.938h5.938V13.8H50.071ZM44.133,13.8h5.938v5.938H44.133Zm5.938,5.938h5.938v5.938H50.071Zm-5.937,5.938h5.938v5.938H44.133Zm5.938,5.938h5.938v5.937H50.071Zm-5.937,5.937h5.938v5.938H44.133Zm0,11.875h5.938v5.938H44.133Zm5.938,5.938h5.938V61.3H50.071ZM44.133,61.3h5.938v5.938H44.133Zm5.938,5.938h5.938v5.938H50.071Zm-5.937,5.938h5.938v5.938H44.133Zm5.938,5.938h5.938v5.938H50.071Zm-5.937,5.938h5.938v5.938H44.133Zm5.938,5.938h5.938v5.938H50.071ZM91.633,49.428h5.937v5.938H91.633Zm-83.125,0h5.937v5.938H8.508Zm5.937-5.937h5.937v5.938H14.446Zm-11.875,0H8.508v5.938H2.571Zm23.75,0h5.938v5.938H26.321Zm5.938,5.938H38.2v5.938H32.258ZM38.2,43.491h5.937v5.938H38.2Zm17.813,5.938h5.937v5.938H56.008Zm5.937-5.937h5.938v5.938H61.946Zm5.938,5.938h5.938v5.938H67.883Zm5.938-5.937h5.938v5.938H73.821Zm5.938,5.938H85.7v5.938H79.758ZM85.7,43.491h5.938v5.938H85.7ZM91.633,61.3h5.937v5.938H91.633Zm-35.625,0h5.938v5.938H56.008Zm5.938-5.937h5.938V61.3H61.946ZM67.883,61.3h5.938v5.938H67.883Zm11.875,0H85.7v5.938H79.758ZM85.7,55.366h5.938V61.3H85.7Zm5.938,17.813h5.938v5.938H91.633Zm-35.625,0h5.938v5.938H56.008Zm5.938-5.937h5.938v5.938H61.946Zm11.875,0h5.938v5.938H73.821Zm5.938,5.938H85.7v5.938H79.758ZM85.7,67.241h5.938v5.938H85.7Zm5.938,17.813h5.937v5.938H91.633ZM61.946,79.116h5.938v5.938H61.946Zm5.938,5.938h5.938v5.938H67.883Zm5.938-5.937h5.938v5.938H73.821Zm5.938,5.938H85.7v5.938H79.758ZM61.946,90.991h5.938v5.938H61.946Zm11.875,0h5.938v5.938H73.821Zm11.875,0h5.938v5.938H85.7Z" transform="translate(-2.571 -1.928)"/>
</svg>
